<?xml version="1.0" encoding="utf-8"?>
<!-- Svg Vector Icons : http://www.onlinewebfonts.com/icon -->
<!DOCTYPE svg PUBLIC "-//W3C//DTD SVG 1.1//EN" "http://www.w3.org/Graphics/SVG/1.1/DTD/svg11.dtd">
<svg version="1.1" xmlns="http://www.w3.org/2000/svg" xmlns:xlink="http://www.w3.org/1999/xlink" x="0px" y="0px" viewBox="0 0 1000 1000" enable-background="new 0 0 1000 1000" xml:space="preserve">
<metadata> Svg Vector Icons : http://www.onlinewebfonts.com/icon </metadata>
<g><g transform="translate(0.000000,511.000000) scale(0.100000,-0.100000)"><path d="M4805.1,4630.2c-201-41.7-468.1-169.1-634.7-301.4c-227.9-181.3-443.6-507.3-517.1-779.3c-22.1-76-41.7-102.9-90.7-115.2c-115.2-29.4-507.3-223-732.7-362.7c-769.5-477.9-1401.8-1279.2-1678.7-2124.7l-78.4-237.7L903.7,665C254.3,498.4-83.9-224.5,202.8-829.8c144.6-303.9,416.6-524.4,745-600.4l125-31.9l66.2-198.5c36.8-110.3,120.1-313.7,183.8-453.4C1857-3243.7,2881.4-4062.2,4116.5-4346.5c698.4-161.7,1438.5-125,2168.8,110.3c289.2,93.1,801.4,352.9,1066,541.6c299,213.2,749.9,664.1,963.1,963.1c188.7,267.1,448.5,776.9,544.1,1070.9l63.7,198.5l127.4,29.4C9537.3-1317.5,9900-869,9900-378.9c-2.4,495-333.3,921.4-806.3,1044l-169.1,44.1l-78.4,237.7C8530.1,1910,7782.6,2772.6,6851.4,3250.5L6648,3355.8l-26.9,134.8c-17.2,76-61.3,203.4-100.5,284.3C6206.9,4431.7,5503.6,4782.1,4805.1,4630.2z M5567.3,4064.1c215.7-100.5,392.1-276.9,492.6-492.6c71.1-149.5,78.4-186.3,78.4-397c0-269.6-46.6-394.6-213.2-566.1c-208.3-213.2-548.9-284.3-781.7-161.7c-142.1,76-230.4,237.7-205.9,384.8c29.4,171.5,198.5,318.6,370.1,318.6c220.6,0,333.3,254.9,183.8,421.5c-66.2,76-83.3,80.9-215.7,76c-308.8-7.4-585.7-186.2-745-477.9c-78.4-144.6-83.3-169.1-83.3-387.2c0-201,9.8-252.4,66.2-372.5c174-372.5,632.3-590.6,1078.3-514.6c397,68.6,757.2,345.5,936.2,722.9l93.1,191.2l112.7-66.2c522-301.4,933.7-686.2,1240-1149.3c578.3-874.9,740.1-1963,441.1-2994.7c-63.7-225.5-252.4-644.5-384.7-852.8c-514.6-821-1355.2-1409.1-2320.8-1619.9c-299-66.2-1122.4-66.2-1421.4,0c-1467.9,321-2546.2,1441-2810.9,2918.7c-53.9,299-51.5,857.7,2.5,1176.3c24.5,134.8,85.8,377.4,139.7,539.1c178.9,536.7,450.9,980.3,855.3,1384.6c372.5,370,772,629.8,1274.3,821c127.4,49,254.9,112.7,284.3,137.2c31.9,29.4,66.2,115.2,90.7,237.7c78.4,362.7,318.6,639.6,661.7,767.1c100.5,34.3,181.4,44.1,372.5,39.2C5373.7,4142.5,5422.7,4132.7,5567.3,4064.1z M942.9-366.7c0-289.2-4.9-526.9-9.8-526.9c-39.2,0-178.9,115.2-230.4,188.7C526.3-447.5,587.6-94.7,840,89.1c53.9,39.2,98,71.1,100.5,71.1S942.9-77.5,942.9-366.7z M9280-33.4c142.1-183.8,151.9-428.9,24.5-647c-53.9-88.2-193.6-213.2-240.2-213.2c-4.9,0-9.8,235.3-9.8,524.4v526.9l73.5-46.6C9169.7,86.7,9235.9,23,9280-33.4z"/><path d="M3101.9,782.7c-306.3-73.5-651.9-330.8-752.4-563.6c-44.1-95.6-44.1-115.2-12.3-188.7c44.1-107.8,125-164.2,235.3-164.2c98,0,151.9,39.2,267.1,188.7c117.6,156.8,330.8,252.4,551.4,252.4c237.7,0,375-68.6,568.6-279.4c139.7-149.5,156.8-161.7,252.4-161.7c83.3,0,120.1,14.7,176.5,71.1c142.1,142.2,83.3,313.7-191.2,571C3910.6,772.9,3496.5,878.2,3101.9,782.7z"/><path d="M6317.2,782.7C5937.3,692,5537.9,344,5537.9,106.3c0-137.2,102.9-240.2,245.1-240.2c105.4,0,105.4,0,316.1,232.8c245.1,272,732.7,281.8,995,19.6c41.7-41.7,110.3-112.7,154.4-164.2c66.2-73.5,95.6-88.2,178.9-88.2c208.3,0,308.8,220.6,191.2,414.2c-27,44.1-102.9,134.8-171.5,198.5C7150.4,763.1,6716.6,880.7,6317.2,782.7z"/><path d="M4699.7-1087.2c-76-24.5-176.4-68.6-225.4-98c-117.6-73.5-294.1-272-357.8-406.8l-53.9-110.3l-166.6,14.7c-164.2,17.2-171.5,14.7-242.6-58.8c-83.3-80.9-98-176.5-46.6-286.7c34.3-78.4,110.3-120.1,296.5-159.3c76-17.2,139.7-46.6,139.7-61.3c0-17.2,39.2-107.8,85.8-201c105.4-210.8,252.4-352.9,473-455.8c149.5-71.1,186.3-78.4,397-78.4c210.8,0,247.5,7.3,397,78.4c220.6,102.9,367.6,245.1,473,455.8c46.6,93.1,85.8,183.8,85.8,201c0,14.7,63.7,44.1,142.1,61.3c183.8,39.2,259.8,80.9,294.1,159.3c51.5,110.3,36.8,205.8-46.6,286.7c-71.1,73.5-78.4,76-242.6,58.8l-166.6-14.7L5881-1592c-68.6,144.6-245.1,335.7-375,411.7C5268.3-1040.6,4959.5-1003.8,4699.7-1087.2z M5128.6-1557.7c142.2-39.2,279.4-176.4,323.5-321c53.9-183.8,12.3-338.2-122.5-475.4c-117.6-117.6-210.8-144.6-406.8-127.4c-225.4,22-401.9,230.4-399.4,473c4.9,201,127.4,374.9,318.6,441.1C4959.5-1525.8,5008.5-1523.4,5128.6-1557.7z"/></g></g>
</svg>