<?xml version="1.0"?>
<svg xmlns:rdf="http://www.w3.org/1999/02/22-rdf-syntax-ns#" xmlns="http://www.w3.org/2000/svg" xmlns:cc="http://creativecommons.org/ns#" xmlns:dc="http://purl.org/dc/elements/1.1/" xmlns:svg="http://www.w3.org/2000/svg" id="svg3293" viewBox="0 0 128 128" version="1.0">
  <g id="layer2" stroke="#000" stroke-width="6">
    <path id="path3305" fill="#de8787" d="m64.125 7.313c-5.248 0-9.491 4.382-9.491 9.808 0 0.835 0.126 1.629 0.316 2.404-4.862 3.219-8.036 8.845-8.036 15.186 0 0.966 0.046 1.923 0.19 2.847h34.991c0.143-0.924 0.253-1.881 0.253-2.847 0-6.682-3.617-12.509-8.922-15.629 0.127-0.64 0.19-1.283 0.19-1.961 0-5.426-4.244-9.808-9.491-9.808z"/>
    <path id="rect3301" fill="#ffe680" d="m43.798 50.19c-4.191 0-7.53 3.338-7.53 7.53v56.69c0 4.2 3.339 7.53 7.53 7.53h40.369c4.191 0 7.53-3.33 7.53-7.53v-56.69c0-4.192-3.339-7.53-7.53-7.53h-40.369z"/>
    <path id="path4305" fill="#f00" fill-rule="evenodd" stroke-linecap="round" d="m37.107 103h12.149"/>
    <path id="path5308" fill="#f00" fill-rule="evenodd" stroke-linecap="round" d="m37.04 67.116h12.149"/>
    <path id="path4303" fill="#f00" fill-rule="evenodd" stroke-linecap="round" d="m37.107 84.775h12.149"/>
    <rect id="rect15156" stroke-linejoin="round" fill-rule="evenodd" rx="4" height="12" width="45" stroke-linecap="round" y="38" x="42" fill="#f60"/>
  </g>
  <metadata>
    <rdf:RDF>
      <cc:Work>
        <dc:format>image/svg+xml</dc:format>
        <dc:type rdf:resource="http://purl.org/dc/dcmitype/StillImage"/>
        <cc:license rdf:resource="http://creativecommons.org/licenses/publicdomain/"/>
        <dc:publisher>
          <cc:Agent rdf:about="http://openclipart.org/">
            <dc:title>Openclipart</dc:title>
          </cc:Agent>
        </dc:publisher>
        <dc:title>Baby bottle icon</dc:title>
        <dc:date>2009-03-20T17:55:26</dc:date>
        <dc:description>baby, baby, bottle, bottle, clip art, clipart, drink, drink, food, food, icon, icon, image, media, milk, milk, png, public domain, remix, svg, </dc:description>
        <dc:source>http://openclipart.org/detail/22668/baby-bottle-icon-by-pitr</dc:source>
        <dc:creator>
          <cc:Agent>
            <dc:title>pitr</dc:title>
          </cc:Agent>
        </dc:creator>
        <dc:subject>
          <rdf:Bag>
            <rdf:li>baby</rdf:li>
            <rdf:li>bottle</rdf:li>
            <rdf:li>clip art</rdf:li>
            <rdf:li>clipart</rdf:li>
            <rdf:li>drink</rdf:li>
            <rdf:li>food</rdf:li>
            <rdf:li>icon</rdf:li>
            <rdf:li>image</rdf:li>
            <rdf:li>media</rdf:li>
            <rdf:li>milk</rdf:li>
            <rdf:li>png</rdf:li>
            <rdf:li>public domain</rdf:li>
            <rdf:li>remix</rdf:li>
            <rdf:li>svg</rdf:li>
          </rdf:Bag>
        </dc:subject>
      </cc:Work>
      <cc:License rdf:about="http://creativecommons.org/licenses/publicdomain/">
        <cc:permits rdf:resource="http://creativecommons.org/ns#Reproduction"/>
        <cc:permits rdf:resource="http://creativecommons.org/ns#Distribution"/>
        <cc:permits rdf:resource="http://creativecommons.org/ns#DerivativeWorks"/>
      </cc:License>
    </rdf:RDF>
  </metadata>
</svg>
